<svg id="Calque_1" data-name="Calque 1" xmlns="http://www.w3.org/2000/svg" viewBox="0 0 844.28 963.02"><defs><style>.cls-1{fill:#fff;}.cls-2{fill:#0b8ed8;}</style></defs><path id="logo" class="cls-1" d="M933.38,119.16a26.62,26.62,0,0,0-26.55-26.54H115.65A27,27,0,0,0,89.1,119.16V910.08a26.63,26.63,0,0,0,26.55,26.54H906.83a26.62,26.62,0,0,0,26.55-26.54ZM817.1,622.37l-99.3-37.68c-8.5,23.35-21.24,44-36.64,62.63l80.71,67.42a318.13,318.13,0,0,1-84.43,70.59L624.34,694a202.47,202.47,0,0,1-69,25l18,104a318.25,318.25,0,0,1-55.22,4.78,312.32,312.32,0,0,1-54.7-4.78l18.06-104a206.64,206.64,0,0,1-69-25l-53.1,91.3A326.86,326.86,0,0,1,275,714.74l80.71-68a207.07,207.07,0,0,1-37.17-63.7l-100.35,36.1C205.39,584.69,190,548.06,190,510.9h94.52c0-25.48,15.4-49.36,23.36-72.19L216,402.62c12.75-35,32.92-66.89,56.82-95.55L354.6,375c15.93-18.58,35-35,56.82-47.24l-51.51-91.3a315.57,315.57,0,0,1,103.54-37.69l18.59,104a215.73,215.73,0,0,1,73.81,0l18-104a311.19,311.19,0,0,1,103.54,37.69l-52.56,91.3A208.52,208.52,0,0,1,681.16,375l80.71-67.94a311.88,311.88,0,0,1,55.22,95.55L717.8,442.43c8,22.29,12.74,36.09,12.74,75.37H836.21c0,26-6.37,70.07-19.12,104.57Z" transform="translate(-89.1 -92.62)"/><g id="blockcypher"><path id="path9" class="cls-1" d="M125.29,974.33c16.76,0,27.06,7.6,27.06,20.2,0,9.05-5.41,15.93-14.15,18,10.82,1.87,17.28,9.58,17.28,20.4,0,13.85-11.14,22.18-29.36,22.18H90.3V974.33Zm-21.45,33.42h20.72c8.64,0,13.84-4.06,13.84-10.83s-5.2-10.52-13.84-10.52H103.84Zm0,35.19h20.72c10.62,0,17-4.17,17-11.77,0-7.18-6.35-11.45-17-11.45H103.84Z" transform="translate(-89.1 -92.62)"/><path id="path11" class="cls-1" d="M218,1042.73v12.39H169.43V974.33h13.64v68.4Z" transform="translate(-89.1 -92.62)"/><path id="path13" class="cls-1" d="M307.48,1014.72c0,23.12-18.63,40.92-42.79,40.92s-42.79-17.91-42.79-40.92c0-23.21,18.64-40.7,42.79-40.7S307.48,991.61,307.48,1014.72Zm-71.73,0a28.89,28.89,0,0,0,57.78,0A28.48,28.48,0,0,0,264.8,986.2C249,986.2,235.75,998.69,235.75,1014.72Z" transform="translate(-89.1 -92.62)"/><path id="path15" class="cls-1" d="M389.84,986.4l-7.91,9.9C376.1,989.94,367.66,986,359.44,986c-16.14,0-28.84,12.49-28.84,28.32a28.5,28.5,0,0,0,28.84,28.52c8.12,0,16.34-3.64,22.49-9.57l8.12,9c-8.23,8.12-19.89,13.22-31.24,13.22-23.63,0-42-17.91-42-41,0-22.9,18.54-40.6,42.48-40.6a45.63,45.63,0,0,1,30.51,12.59Z" transform="translate(-89.1 -92.62)"/><path id="path17" class="cls-1" d="M426.49,1019.41l-13.75,15.1V1055H399.1V974.33h13.64v41.75l38.53-41.75h16l-31.24,34.46L469.38,1055H453Z" transform="translate(-89.1 -92.62)"/><path id="path19" class="cls-2" d="M546,986.4l-7.91,9.9c-5.83-6.36-14.27-10.31-22.49-10.31-16.14,0-28.84,12.49-28.84,28.32a28.5,28.5,0,0,0,28.84,28.52c8.12,0,16.34-3.64,22.49-9.57l8.12,9c-8.23,8.12-19.89,13.22-31.24,13.22-23.63,0-42-17.91-42-41,0-22.9,18.53-40.6,42.47-40.6A45.63,45.63,0,0,1,546,986.4Z" transform="translate(-89.1 -92.62)"/><path id="path21" class="cls-2" d="M593.07,1055H579.53v-26.34l-30.09-54.35h13.75l23.11,39.35,22.59-39.35h13.85l-29.67,53.82Z" transform="translate(-89.1 -92.62)"/><path id="path23" class="cls-2" d="M663.35,974.33c20.3,0,32,10,32,27.59,0,18.22-11.66,28.84-32,28.84H644.81v24.36H631.17V974.33Zm-18.64,44.14h18c12.49,0,19.47-5.31,19.47-16.24,0-10.62-7.08-15.72-19.47-15.72h-18Z" transform="translate(-89.1 -92.62)"/><path id="path25" class="cls-2" d="M762.77,1055V1021.6H720V1055H706.34V974.33H720v35.08h42.79V974.33h13.64V1055Z" transform="translate(-89.1 -92.62)"/><path id="path27" class="cls-2" d="M806.61,986.51v21.76h39.45v12.18H806.61v22.38H852V1055H793V974.33h57.68v12.18Z" transform="translate(-89.1 -92.62)"/><path id="path29" class="cls-2" d="M902.81,1030.65c-1.15.11-2.4.11-3.65.11H880v24.36H866.37V974.33h32.79c20.62,0,32.49,10,32.49,27.59,0,12.91-6,22.07-16.77,26.13L933,1055H917.59Zm-3.65-12.18c12.5,0,19.58-5.31,19.58-16.24,0-10.62-7.19-15.72-19.58-15.72H880v32Z" transform="translate(-89.1 -92.62)"/></g></svg>