<?xml version="1.0" encoding="utf-8"?>
<!-- Generator: Adobe Illustrator 26.0.2, SVG Export Plug-In . SVG Version: 6.00 Build 0)  -->
<svg version="1.1" id="Calque_1" xmlns="http://www.w3.org/2000/svg" xmlns:xlink="http://www.w3.org/1999/xlink" x="0px" y="0px"
	 viewBox="0 0 1673.8 1076.7" style="enable-background:new 0 0 1673.8 1076.7;" xml:space="preserve">
<style type="text/css">
	.st0{fill:#FFFFFF;}
	.st1{fill:#345eea;}
	.st2{clip-path:url(#SVGID_00000123438036212307022080000015106491057648964260_);}
	.st3{fill:#fff;}
</style>
<g id="blockcypher">
	<path id="path9" class="st0" d="M69.5,915.2c33.3,0,53.8,15.1,53.8,40.1c0,18-10.8,31.6-28.1,35.8c21.5,3.7,34.3,19,34.3,40.5
		c0,27.5-22.1,44-58.3,44H0V915.2H69.5z M26.9,981.6H68c17.2,0,27.5-8.1,27.5-21.5S85.2,939.2,68,939.2H26.9V981.6z M26.9,1051.5H68
		c21.1,0,33.7-8.3,33.7-23.4c0-14.3-12.6-22.8-33.7-22.8H26.9V1051.5z"/>
	<path id="path11" class="st0" d="M253.6,1051.1v24.6h-96.4V915.2h27.1v135.9H253.6z"/>
	<path id="path13" class="st0" d="M431.4,995.5c0,45.9-37,81.3-85,81.3c-47.8,0-85-35.6-85-81.3c0-46.1,37-80.9,85-80.9
		S431.4,949.5,431.4,995.5z M288.9,995.5c0,31.8,26.3,57.1,57.7,57.1c31.4,0.1,57-25.3,57.1-56.8c0-0.1,0-0.2,0-0.3
		c0-31.8-25.6-56.7-57.1-56.7S288.9,963.6,288.9,995.5L288.9,995.5z"/>
	<path id="path15" class="st0" d="M595,939.2l-15.7,19.6c-11.6-12.6-28.3-20.5-44.7-20.5c-32.1,0-57.3,24.8-57.3,56.2
		s25.3,56.7,57.3,56.7c16.1,0,32.5-7.2,44.7-19l16.1,17.8c-16.3,16.1-39.5,26.3-62,26.3c-46.9,0-83.3-35.6-83.3-81.5
		c0-45.5,36.8-80.7,84.4-80.7C556.7,914.6,579.5,923.9,595,939.2L595,939.2z"/>
	<path id="path17" class="st0" d="M667.8,1004.7l-27.3,30v40.7h-27.1V915.2h27.1v82.9l76.5-82.9h31.8l-62,68.5l66.2,91.8h-32.5
		L667.8,1004.7z"/>
	<path id="path19" class="st1" d="M905.2,939.2l-15.7,19.6c-11.6-12.6-28.3-20.5-44.7-20.5c-32,0-57.3,24.8-57.3,56.2
		s25.2,56.7,57.3,56.7c16.1,0,32.5-7.2,44.7-19l16.1,17.8c-16.3,16.1-39.5,26.3-62,26.3c-46.9,0-83.3-35.6-83.3-81.5
		c0-45.5,36.8-80.7,84.4-80.7C866.9,914.6,889.7,923.9,905.2,939.2z"/>
	<path id="path21" class="st1" d="M998.6,1075.5h-26.9v-52.3l-59.8-108h27.3l45.9,78.2l44.9-78.2h27.5l-58.9,106.9L998.6,1075.5z"/>
	<path id="path23" class="st1" d="M1138.2,915.2c40.3,0,63.5,19.8,63.5,54.8c0,36.2-23.2,57.3-63.5,57.3h-36.8v48.4h-27.1V915.2
		H1138.2z M1101.2,1002.9h35.8c24.8,0,38.7-10.5,38.7-32.3c0-21.1-14.1-31.2-38.7-31.2h-35.8V1002.9z"/>
	<path id="path25" class="st1" d="M1335.7,1075.5v-66.4h-85v66.4h-27.1V915.2h27.1v69.7h85v-69.7h27.1v160.3H1335.7z"/>
	<path id="path27" class="st1" d="M1422.8,939.4v43.2h78.4v24.2h-78.4v44.5h90.2v24.2h-117.2V915.2h114.6v24.2H1422.8z"/>
	<path id="path29" class="st1" d="M1613.9,1027.1c-2.3,0.2-4.8,0.2-7.2,0.2h-38v48.4h-27.1V915.2h65.1c41,0,64.5,19.8,64.5,54.8
		c0,25.6-12,43.8-33.3,51.9l36,53.6h-30.6L1613.9,1027.1z M1606.6,1002.9c24.8,0,38.9-10.5,38.9-32.3c0-21.1-14.3-31.2-38.9-31.2
		h-38v63.5H1606.6z"/>
</g>
<g id="g10" transform="matrix(1.3333333,0,0,-1.3333333,0,30.6632)">
	<g id="g36">
		<g>
			<g>
				<g>
					<defs>
						<rect id="SVGID_1_" x="-2928.1" y="-1082" width="10974.9" height="1579"/>
					</defs>
					<clipPath id="SVGID_00000007409882856093476860000014748886938397508502_">
						<use xlink:href="#SVGID_1_"  style="overflow:visible;"/>
					</clipPath>
					<g id="g38" style="clip-path:url(#SVGID_00000007409882856093476860000014748886938397508502_);">
						<g id="g44" transform="translate(11.4063,19.9856)">
							<path id="path46" class="st3" d="M564-68.2c0,0,3.2-5.5,5.5-11.9c3.2-5.5,5.5-11.9,5.5-14.3c5.5-8.7,17.4-17.4,29.3-20.6
								c5.5-3.2,5.5-3.2,17.4-3.2s11.9,0,17.4,3.2c5.5,0,11.9,5.5,17.4,11.9c5.5,5.5,8.7,11.9,14.3,26.1c5.5,8.7,5.5,11.9,11.9,11.9
								c3.2,0,5.5,0,11.9-3.2c3.2-3.2,14.3-5.5,23-11.9c11.9-3.2,20.6-8.7,20.6-8.7c3.2,0,5.5-3.2,5.5-3.2
								c8.7-3.2,11.9-8.7,5.5-20.6c0-3.2-3.2-8.7-3.2-14.3c-3.2-5.5-3.2-5.5-3.2-14.3c0-11.9,3.2-20.6,8.7-29.3
								c5.5-5.5,8.7-8.7,14.3-11.9c8.7-5.5,17.4-8.7,29.3-8.7c8.7,0,11.9,0,26.1,5.5c5.5,3.2,8.7,3.2,11.9,3.2
								c5.5,0,5.5,0,17.4-26.1c3.2-8.7,11.9-26.1,14.3-34.9c3.2-3.2,3.2-5.5,3.2-8.7c0-5.5-3.2-5.5-14.3-11.9
								c-11.9-5.5-17.4-8.7-23-14.3c-11.9-11.9-17.4-26.1-14.3-43.6c0-8.7,3.2-14.3,8.7-20.6c5.5-11.9,14.3-14.3,29.3-23
								c14.3-5.5,14.3-5.5,14.3-8.7c3.2-3.2,0-8.7,0-14.3c-3.2-3.2-14.3-31.7-17.4-43.6c0-3.2-3.2-3.2-5.5-11.9
								c-3.2-8.7-8.7-11.9-17.4-5.5c-3.2,3.2-5.5,3.2-5.5,3.2s-3.2,0-3.2,3.2c-10.3,7.1-15.8,7.1-24.6,7.1s-8.7,0-14.3-3.2
								c-11.9-3.2-20.6-8.7-26.1-17.4l-3.2-3.2c0,0,0-3.2-3.2-3.2c-3.2-3.2-5.5-8.7-5.5-14.3c0-3.2,0-5.5,0-11.9
								c0-8.7,3.2-11.9,8.7-26.1c3.2-8.7,3.2-11.9,3.2-14.3c0-3.2-3.2-3.2-8.7-5.5c-8.7-3.2-23-8.7-23-8.7s-5.5-3.2-11.9-5.5
								c-26.1-11.9-26.1-11.9-29.3-8.7c-3.2,0-3.2,3.2-8.7,11.9c-8.7,20.6-14.3,29.3-29.3,34.9c-8.7,3.2-11.9,5.5-23,5.5
								c-11.9,0-14.3,0-23-5.5c-14.3-5.5-20.6-14.3-29.3-37.2c-5.5-11.9-5.5-11.9-11.9-11.9c-3.2,0-5.5,0-14.3,3.2
								c-14.3,5.5-43.6,17.4-49.1,20.6c-3.2,0-5.5,3.2-5.5,3.2c-3.2,3.2-3.2,5.5,0,17.4c5.5,14.3,5.5,17.4,8.7,29.3
								c0,8.7,0,14.3-3.2,20.6c-3.2,5.5-3.2,8.7-8.7,14.3c-11.9,8.7-23,17.4-37.2,17.4c-5.5,0-8.7,0-14.3-3.2c0,0-5.5-3.2-14.3-5.5
								c-17.4-8.7-20.6-8.7-29.3,17.4c0,8.7-11.9,34.9-14.3,40.4c-3.2,3.2-3.2,5.5-3.2,8.7c0,5.5,0,5.5,17.4,14.3
								c3.2,3.2,8.7,3.2,11.9,5.5c11.9,5.5,20.6,20.6,23,34.9c0,5.5,0,14.3,0,20.6c0,3.2-5.5,14.3-5.5,14.3l-2.4,1.6
								c-8.7,11.9-14.3,17.4-26.1,20.6c-11.9,5.5-14.3,5.5-14.3,8.7c-3.2,3.2,0,5.5,0,11.9c0,3.2,5.5,11.9,8.7,17.4
								c0,8.7,3.2,14.3,5.5,17.4c0,3.2,3.2,8.7,5.5,14.3c0,5.5,3.2,11.9,5.5,11.9c3.2,3.2,5.5,3.2,8.7,3.2c0,0,5.5-3.2,11.9-5.5
								c11.9-5.5,14.3-5.5,17.4-5.5s14.3,0,14.3,0h3.2c11.9,3.2,26.1,11.9,34.9,23c5.5,8.7,8.7,20.6,8.7,29.3s-3.2,11.9-8.7,26.1
								c-3.2,8.7-3.2,11.9,0,14.3c3.2,2.4,0,3.2,23,11.9c5.5,3.2,8.7,3.2,11.9,3.2c20.6,17.4,26.1,20.6,31.7,20.6
								C560.9-65.9,560.9-65.9,564-68.2 M338.3-4.9c-11.9-3.2-23-11.9-26.1-26.1c-3.2-5.5-3.2-560.8,0-569.6
								c3.2-8.7,8.7-17.4,17.4-23c8.7-3.2-11.9-3.2,292.3-3.2c306.6,0,283.6,0,292.3,3.2c5.5,3.2,11.9,8.7,14.3,14.3
								c3.2,8.7,3.2-11.9,3.2,292.3c0,240,0,280.4,0,283.6c-3.2,14.3-14.3,23-26.1,26.1C896.7-1.7,341.5-4.9,338.3-4.9"/>
						</g>
						<g id="g48" transform="translate(13.0829,16.0601)">
							<path id="path50" class="st3" d="M610.5-177.8c-11.9,0-17.4-3.2-23-3.2c-45.9-11.9-84-49.1-95.8-95.8
								c-3.2-11.9-3.2-17.4-3.2-31.7c0-23,3.2-40.4,14.3-61c17.4-34.9,49.1-57.8,87.1-69.7c11.9-3.2,17.4-3.2,31.7-3.2
								s20.6,0,31.7,3.2c53.1,11.9,90.3,55.5,99,110.9c0,8.7,3.2,29.3,0,37.2c-11.1,57.8-54.7,104.6-112.5,113.3
								C631.1-177.8,616.8-177.8,610.5-177.8"/>
						</g>
					</g>
				</g>
			</g>
		</g>
	</g>
</g>
</svg>
