<svg id="Calque_1" data-name="Calque 1" xmlns="http://www.w3.org/2000/svg" viewBox="0 0 1673.83 1076.73"><defs><style>.cls-1{fill:#fff;}.cls-2{fill:#0b8ed8;}</style></defs><path id="logo" class="cls-1" d="M1317.66,97.81a26.62,26.62,0,0,0-26.55-26.54H499.93a27,27,0,0,0-26.55,26.54V888.73a26.62,26.62,0,0,0,26.55,26.54h791.18a26.63,26.63,0,0,0,26.55-26.54ZM1201.37,601l-99.3-37.69c-8.49,23.36-21.24,44.06-36.64,62.64l80.72,67.41a318.32,318.32,0,0,1-84.43,70.6l-53.1-91.3a202.73,202.73,0,0,1-69,25l18,104a318.25,318.25,0,0,1-55.22,4.78,312.2,312.2,0,0,1-54.69-4.78l18-104a206.86,206.86,0,0,1-69-25L743.65,764a326.69,326.69,0,0,1-84.42-70.6l80.71-67.94a206.87,206.87,0,0,1-37.17-63.7l-100.36,36.1c-12.74-34.51-28.14-71.13-28.14-108.29h94.51c0-25.48,15.4-49.37,23.37-72.19l-91.86-36.1c12.74-35,32.92-66.88,56.81-95.54l81.77,67.94c15.93-18.58,35-35,56.82-47.24l-51.51-91.3a315.54,315.54,0,0,1,103.55-37.69l18.58,104a215.73,215.73,0,0,1,73.81,0l18-104a311.24,311.24,0,0,1,103.55,37.69l-52.57,91.3a208.52,208.52,0,0,1,56.28,47.24l80.72-67.94a312.36,312.36,0,0,1,55.22,95.54l-99.3,39.82c8,22.29,12.75,36.09,12.75,75.37h105.66c0,26-6.37,70.07-19.11,104.57Z" transform="translate(-60.44 -71.27)"/><g id="blockcypher"><path id="path9" class="cls-1" d="M129.92,986.49c33.3,0,53.77,15.1,53.77,40.12,0,18-10.75,31.64-28.12,35.78,21.5,3.72,34.33,19,34.33,40.53,0,27.5-22.13,44-58.32,44H60.44V986.49Zm-42.6,66.38h41.16c17.16,0,27.5-8.06,27.5-21.5s-10.34-20.89-27.5-20.89H87.32Zm0,69.9h41.16c21.09,0,33.7-8.27,33.7-23.37,0-14.27-12.61-22.75-33.7-22.75H87.32Z" transform="translate(-60.44 -71.27)"/><path id="path11" class="cls-1" d="M314,1122.36V1147H217.61V986.49H244.7v135.87Z" transform="translate(-60.44 -71.27)"/><path id="path13" class="cls-1" d="M491.82,1066.73c0,45.91-37,81.27-85,81.27-47.77,0-85-35.57-85-81.27,0-46.12,37-80.86,85-80.86S491.82,1020.82,491.82,1066.73Zm-142.48,0c0,31.84,26.26,57.07,57.69,57.07a56.92,56.92,0,0,0,57.08-57.07c0-31.85-25.64-56.67-57.08-56.67S349.34,1034.88,349.34,1066.73Z" transform="translate(-60.44 -71.27)"/><path id="path15" class="cls-1" d="M655.4,1010.48l-15.72,19.64c-11.58-12.61-28.33-20.47-44.66-20.47-32.06,0-57.29,24.82-57.29,56.25S563,1122.56,595,1122.56c16.13,0,32.46-7.23,44.66-19l16.13,17.78c-16.33,16.13-39.49,26.27-62,26.27-46.94,0-83.34-35.57-83.34-81.48,0-45.5,36.81-80.65,84.38-80.65,22.33.41,45.08,9.72,60.59,25Z" transform="translate(-60.44 -71.27)"/><path id="path17" class="cls-1" d="M728.19,1076l-27.29,30v40.74H673.81V986.49H700.9v82.93l76.51-82.93h31.85l-62,68.45,66.18,91.82H780.93Z" transform="translate(-60.44 -71.27)"/><path id="path19" class="cls-2" d="M965.6,1010.48l-15.72,19.64c-11.58-12.61-28.33-20.47-44.67-20.47-32.05,0-57.28,24.82-57.28,56.25s25.23,56.66,57.28,56.66c16.13,0,32.47-7.23,44.67-19L966,1121.32c-16.33,16.13-39.5,26.27-62,26.27-46.94,0-83.34-35.57-83.34-81.48,0-45.5,36.81-80.65,84.38-80.65C927.34,985.87,950.09,995.18,965.6,1010.48Z" transform="translate(-60.44 -71.27)"/><path id="path21" class="cls-2" d="M1059.07,1146.76h-26.88v-52.32l-59.77-108h27.3l45.91,78.17,44.88-78.17H1118l-58.94,106.91Z" transform="translate(-60.44 -71.27)"/><path id="path23" class="cls-2" d="M1198.66,986.49c40.33,0,63.49,19.85,63.49,54.8,0,36.19-23.16,57.28-63.49,57.28h-36.81V1147h-27.09V986.49Zm-37,87.68h35.77c24.82,0,38.67-10.54,38.67-32.26,0-21.09-14.06-31.22-38.67-31.22h-35.77Z" transform="translate(-60.44 -71.27)"/><path id="path25" class="cls-2" d="M1396.16,1146.76v-66.38h-85v66.38h-27.09V986.49h27.09v69.69h85V986.49h27.09v160.27Z" transform="translate(-60.44 -71.27)"/><path id="path27" class="cls-2" d="M1483.22,1010.69v43.22h78.38v24.19h-78.38v44.46h90.16v24.2H1456.13V986.49H1570.7v24.2Z" transform="translate(-60.44 -71.27)"/><path id="path29" class="cls-2" d="M1674.3,1098.37c-2.27.2-4.75.2-7.24.2h-38V1147h-27.09V986.49h65.14c41,0,64.52,19.85,64.52,54.8,0,25.64-12,43.84-33.29,51.91l36,53.56h-30.6Zm-7.24-24.2c24.82,0,38.88-10.54,38.88-32.26,0-21.09-14.27-31.22-38.88-31.22h-38v63.48Z" transform="translate(-60.44 -71.27)"/></g></svg>